<svg xmlns="http://www.w3.org/2000/svg" version="1.1" xmlns:xlink="http://www.w3.org/1999/xlink" xmlns:svgjs="http://svgjs.dev/svgjs" width="1000" height="1000" viewBox="0 0 1000 1000"><rect width="1000" height="1000" fill="#ffffff"></rect><g transform="matrix(0.7,0,0,0.7,149.57575757575756,375.6100968200552)"><svg xmlns="http://www.w3.org/2000/svg" version="1.1" xmlns:xlink="http://www.w3.org/1999/xlink" xmlns:svgjs="http://svgjs.com/svgjs" viewBox="0 0 396 141" data-background-color="#6366f1" preserveAspectRatio="xMidYMid meet" height="356" width="1000"><defs></defs><g id="tight-bounds" transform="matrix(1,0,0,1,0.2400000000000091,-0.11887500653207894)"><svg viewBox="0 0 395.52 141.23775001306413" height="141.23775001306413" width="395.52"><g><svg viewBox="0 0 608.0742525675573 217.1395612700179" height="141.23775001306413" width="395.52"><g transform="matrix(1,0,0,1,212.5542525675573,46.66019946717037)"><svg viewBox="0 0 395.52 123.81916233567716" height="123.81916233567716" width="395.52"><g><svg viewBox="0 0 395.52 123.81916233567716" height="123.81916233567716" width="395.52"><g><svg viewBox="0 0 395.52 123.81916233567716" height="123.81916233567716" width="395.52"><g transform="matrix(1,0,0,1,0,0)"><svg width="395.52" viewBox="4.49 -37.99 159.70999999999998 50" height="123.81916233567716" data-palette-color="#f8fafc"><path d="M34.11-18.19L34.11-18.19Q34.11-9.38 29.09-4.69 24.07 0 14.6 0L14.6 0 4.49 0 4.49-35.69 15.7-35.69Q24.44-35.69 29.27-31.08 34.11-26.46 34.11-18.19ZM26.25-17.99L26.25-17.99Q26.25-29.49 16.09-29.49L16.09-29.49 12.06-29.49 12.06-6.25 15.31-6.25Q26.25-6.25 26.25-17.99ZM56.15-27.81L56.15-27.81Q57.66-27.81 58.66-27.59L58.66-27.59 58.1-20.61Q57.2-20.85 55.91-20.85L55.91-20.85Q52.34-20.85 50.35-19.02 48.36-17.19 48.36-13.89L48.36-13.89 48.36 0 40.92 0 40.92-27.29 46.56-27.29 47.65-22.71 48.02-22.71Q49.29-25 51.45-26.4 53.61-27.81 56.15-27.81ZM69.55-13.7L69.55-13.7Q69.55-9.64 70.88-7.57 72.21-5.49 75.21-5.49L75.21-5.49Q78.19-5.49 79.5-7.56 80.81-9.62 80.81-13.7L80.81-13.7Q80.81-17.75 79.49-19.78 78.17-21.8 75.17-21.8L75.17-21.8Q72.19-21.8 70.87-19.79 69.55-17.77 69.55-13.7ZM88.42-13.7L88.42-13.7Q88.42-7.03 84.91-3.27 81.39 0.49 75.12 0.49L75.12 0.49Q71.19 0.49 68.18-1.23 65.18-2.95 63.57-6.18 61.96-9.4 61.96-13.7L61.96-13.7Q61.96-20.39 65.45-24.1 68.94-27.81 75.26-27.81L75.26-27.81Q79.19-27.81 82.2-26.1 85.2-24.39 86.81-21.19 88.42-17.99 88.42-13.7ZM109.56 0.49L109.56 0.49Q104.75 0.49 102.02-3L102.02-3 101.63-3Q102.02 0.42 102.02 0.95L102.02 0.95 102.02 12.01 94.57 12.01 94.57-27.29 100.63-27.29 101.68-23.75 102.02-23.75Q104.63-27.81 109.76-27.81L109.76-27.81Q114.59-27.81 117.33-24.07 120.06-20.34 120.06-13.7L120.06-13.7Q120.06-9.33 118.78-6.1 117.5-2.88 115.13-1.2 112.76 0.49 109.56 0.49ZM107.37-21.85L107.37-21.85Q104.61-21.85 103.34-20.15 102.07-18.46 102.02-14.55L102.02-14.55 102.02-13.75Q102.02-9.35 103.33-7.45 104.63-5.54 107.46-5.54L107.46-5.54Q112.47-5.54 112.47-13.79L112.47-13.79Q112.47-17.82 111.24-19.84 110-21.85 107.37-21.85ZM148.74 0L143.54 0 142.1-3.71 141.91-3.71Q140.03-1.34 138.04-0.43 136.05 0.49 132.85 0.49L132.85 0.49Q128.92 0.49 126.66-1.76 124.4-4 124.4-8.15L124.4-8.15Q124.4-12.5 127.44-14.56 130.48-16.63 136.61-16.85L136.61-16.85 141.35-16.99 141.35-18.19Q141.35-22.34 137.1-22.34L137.1-22.34Q133.83-22.34 129.41-20.36L129.41-20.36 126.94-25.39Q131.66-27.86 137.39-27.86L137.39-27.86Q142.89-27.86 145.82-25.46 148.74-23.07 148.74-18.19L148.74-18.19 148.74 0ZM141.35-10.4L141.35-12.65 138.47-12.55Q135.22-12.45 133.63-11.38 132.05-10.3 132.05-8.11L132.05-8.11Q132.05-4.96 135.66-4.96L135.66-4.96Q138.25-4.96 139.8-6.45 141.35-7.93 141.35-10.4L141.35-10.4ZM156.09-34.35L156.09-34.35Q156.09-37.99 160.14-37.99L160.14-37.99Q164.2-37.99 164.2-34.35L164.2-34.35Q164.2-32.62 163.18-31.65 162.17-30.69 160.14-30.69L160.14-30.69Q156.09-30.69 156.09-34.35ZM163.85-27.29L163.85 0 156.41 0 156.41-27.29 163.85-27.29Z" opacity="1" transform="matrix(1,0,0,1,0,0)" fill="#000000" class="undefined-text-0" data-fill-palette-color="primary" id="text-0"></path></svg></g></svg></g></svg></g></svg></g><g><svg viewBox="0 0 183.32352 217.1395612700179" height="217.1395612700179" width="183.32352"><g><svg xmlns="http://www.w3.org/2000/svg" xmlns:xlink="http://www.w3.org/1999/xlink" version="1.1" x="0" y="0" viewBox="14.341 7.764 71.3176706003516 84.47300000000001" style="enable-background:new 0 0 100 100;" xml:space="preserve" height="217.1395612700179" width="183.32352" class="icon-icon-0" data-fill-palette-color="accent" id="icon-0"><path d="M80.386 34.78C68.483 12.632 33.632 7.764 33.632 7.764s16.09 18.479-4.479 33.072c-9.896 7.021-15.23 15.636-14.767 25.123-0.01 0.242-0.045 0.479-0.045 0.721 0 14.113 14.288 25.557 31.913 25.557 5.283 0 10.258-1.047 14.647-2.869-0.013 0.018-0.02 0.035-0.032 0.053 12.814-4.246 21.346-14.885 23.706-24.369C87.038 55.143 85.16 43.661 80.386 34.78zM27.12 57.535c-2.812 5.385-3.659 11.168-2.662 15.605-4.095-3.824-5.03-10.969-1.906-16.941 2.646-5.064 7.412-7.737 11.877-7.225C31.684 50.841 29.085 53.777 27.12 57.535z" fill-rule="evenodd" clip-rule="evenodd" fill="#000000" data-fill-palette-color="accent"></path></svg></g></svg></g></svg></g></svg><rect width="395.52" height="141.23775001306413" fill="none" stroke="none" visibility="hidden"></rect></g></svg></g></svg>